<?xml version="1.0" standalone="no"?>
<!DOCTYPE svg PUBLIC "-//W3C//DTD SVG 20010904//EN"
 "http://www.w3.org/TR/2001/REC-SVG-20010904/DTD/svg10.dtd">
<svg version="1.0" xmlns="http://www.w3.org/2000/svg"
 width="1024.000000pt" height="1024.000000pt" viewBox="0 0 1024.000000 1024.000000"
 preserveAspectRatio="xMidYMid meet">
<metadata>
Created by potrace 1.14, written by Peter Selinger 2001-2017
</metadata>
<g transform="translate(0.000000,1024.000000) scale(0.100000,-0.100000)"
fill="#000000" stroke="none">
<path d="M1655 10059 c-636 -54 -1181 -518 -1334 -1137 -48 -195 -46 -18 -46
-3802 0 -3784 -2 -3607 46 -3802 122 -492 501 -903 981 -1062 133 -45 236 -65
378 -76 152 -12 6728 -12 6880 0 142 11 245 31 378 76 480 159 859 570 981
1062 48 195 46 18 46 3802 0 3784 2 3607 -46 3802 -156 628 -697 1084 -1354
1139 -133 11 -6780 10 -6910 -2z m6290 -3814 c0 -3235 4 -3036 -60 -3335 -184
-875 -827 -1504 -1782 -1743 -503 -127 -1140 -147 -1701 -56 -592 97 -1084
335 -1457 704 -339 336 -545 755 -620 1260 -21 138 -34 426 -20 431 6 2 300 3
655 2 l645 -3 6 -115 c21 -375 141 -665 369 -891 196 -194 437 -313 747 -370
169 -31 500 -38 684 -14 355 45 617 160 832 364 214 203 332 450 377 784 7 52
10 870 10 2458 l0 2379 -1045 0 -1045 0 0 538 c0 296 3 542 7 545 3 4 770 6
1702 5 l1696 -3 0 -2940z"/>
</g>
</svg>
